<svg width="125" height="125" viewBox="0 0 125 125" fill="none" xmlns="http://www.w3.org/2000/svg">
<circle cx="62.5" cy="62.5" r="62" stroke="#C7C7C7"/>
<g clip-path="url(#clip0)">
<path d="M92.2913 57.9355H89.9578C89.6144 55.854 89.0329 53.814 88.2288 51.8694L90.2069 50.6387C91.475 49.8498 91.8649 48.176 91.076 46.9079L89.1153 43.7564C88.3263 42.4882 86.6528 42.0984 85.3845 42.8873L83.4007 44.1215C82.371 42.9517 81.2344 41.8604 80.0204 40.8757L81.1738 38.8431C81.5309 38.2139 81.6216 37.4832 81.4292 36.7858C81.2368 36.0884 80.7842 35.5076 80.155 35.1504L76.9269 33.3185C76.2977 32.9614 75.5671 32.8708 74.8696 33.0631C74.1722 33.2555 73.5913 33.7081 73.2342 34.3373L72.0841 36.3639C70.4612 35.7687 68.7734 35.3243 67.0647 35.0423V32.7087C67.0647 31.2152 65.8496 30 64.3561 30H60.6443C59.1508 30 57.9356 31.2152 57.9356 32.7087V35.0423C56.227 35.3244 54.5391 35.7687 52.9163 36.3639L51.7661 34.3373C51.409 33.7081 50.8282 33.2555 50.1308 33.0631C49.4334 32.8706 48.7027 32.9614 48.0734 33.3185L44.8454 35.1504C44.2161 35.5076 43.7636 36.0884 43.5712 36.7858C43.3787 37.4832 43.4695 38.2139 43.8265 38.8431L44.98 40.8757C43.766 41.8603 42.6293 42.9517 41.5997 44.1215L39.6157 42.8873C38.3476 42.0984 36.6738 42.4882 35.885 43.7564L33.9243 46.9081C33.1355 48.1762 33.5252 49.8499 34.7934 50.6389L36.7716 51.8695C35.9673 53.8141 35.386 55.8542 35.0426 57.9356H32.7088C31.2152 57.9355 30 59.1507 30 60.6442V64.3559C30 65.8495 31.2152 67.0646 32.7088 67.0646H35.0423C35.3857 69.1461 35.9672 71.1862 36.7713 73.1307L34.7932 74.3614C33.5251 75.1504 33.1352 76.8241 33.9241 78.0922L35.8848 81.2438C36.6736 82.5119 38.3474 82.9018 39.6156 82.1129L41.5994 80.8787C42.6292 82.0485 43.7658 83.14 44.9799 84.1246L43.8264 86.1571C43.4693 86.7864 43.3787 87.5171 43.571 88.2145C43.7634 88.9119 44.216 89.4926 44.8452 89.8498L48.0733 91.6818C48.7027 92.039 49.4332 92.1296 50.1306 91.9372C50.8281 91.7448 51.4089 91.2922 51.766 90.663L52.9161 88.6363C54.5389 89.2315 56.2269 89.6759 57.9355 89.9579V92.2915C57.9355 93.7851 59.1507 95.0003 60.6442 95.0003H64.3559C65.8495 95.0003 67.0646 93.7851 67.0646 92.2915V89.9579C68.7734 89.6759 70.4612 89.2315 72.084 88.6363L73.2341 90.663C73.5912 91.2922 74.1721 91.7448 74.8695 91.9372C75.5672 92.1298 76.2977 92.0389 76.9268 91.6818L80.1549 89.8498C80.7841 89.4926 81.2367 88.9119 81.4291 88.2145C81.6216 87.5171 81.5308 86.7864 81.1737 86.1571L80.0203 84.1246C81.2341 83.1401 82.3708 82.0485 83.4007 80.8787L85.3845 82.1129C86.6525 82.9018 88.3262 82.5121 89.1152 81.2438L91.0759 78.0922C91.8648 76.8241 91.475 75.1504 90.2068 74.3614L88.2286 73.1307C88.3441 72.8507 88.4613 72.5496 88.5948 72.1903C88.7779 71.6972 88.5266 71.149 88.0336 70.9658C87.5408 70.7826 86.9925 71.034 86.8092 71.527C86.6733 71.8929 86.5564 72.1922 86.4411 72.4688C86.0972 73.2939 86.3979 74.2352 87.156 74.7068L89.2007 75.9789C89.5771 76.213 89.6927 76.7097 89.4586 77.0861L87.4979 80.2377C87.2636 80.6141 86.7671 80.7296 86.3907 80.4956L84.3403 79.22C83.5829 78.749 82.6066 78.894 82.0189 79.5654C81.0306 80.6946 79.9354 81.7462 78.7638 82.691C78.0691 83.251 77.8846 84.2207 78.325 84.9966L79.5171 87.0972C79.623 87.284 79.6501 87.5008 79.5929 87.7078C79.5358 87.9148 79.4016 88.0871 79.2148 88.1932L75.9867 90.0251C75.7999 90.1311 75.5831 90.1579 75.3762 90.1009C75.1692 90.0438 74.9968 89.9094 74.8908 89.7227L73.7021 87.6282C73.2615 86.8518 72.3333 86.5131 71.4947 86.8234C69.9412 87.3981 68.3226 87.8242 66.684 88.09C65.8008 88.2333 65.1599 88.9858 65.1599 89.8796V92.2916C65.1599 92.7349 64.7993 93.0956 64.3561 93.0956H60.6443C60.2011 93.0956 59.8405 92.7349 59.8405 92.2916V89.8796C59.8405 88.9858 59.1994 88.2333 58.3164 88.09C56.6778 87.8242 55.0592 87.3981 53.5056 86.8234C52.6671 86.5132 51.7387 86.8516 51.2982 87.6282L50.1094 89.7229C50.0035 89.9095 49.8311 90.0439 49.6241 90.101C49.4171 90.1581 49.2002 90.1313 49.0135 90.0252L45.7855 88.1933C45.5987 88.0874 45.4644 87.9149 45.4073 87.7079C45.3502 87.5009 45.3772 87.2842 45.4831 87.0974L46.6752 84.9967C47.1156 84.2207 46.931 83.251 46.2364 82.6911C45.0647 81.7463 43.9694 80.6947 42.9812 79.5655C42.3937 78.8941 41.4173 78.749 40.6598 79.2201L38.6096 80.4957C38.2331 80.7298 37.7364 80.6142 37.5024 80.2378L35.5417 77.0862C35.3075 76.7099 35.4232 76.2132 35.7996 75.979L37.8442 74.7069C38.6024 74.2353 38.9031 73.2941 38.5592 72.4689C37.7871 70.6166 37.2324 68.6701 36.9104 66.6837C36.7671 65.8007 36.0146 65.1598 35.121 65.1598H32.7088C32.2655 65.1598 31.9048 64.7991 31.9048 64.3559V60.6442C31.9048 60.201 32.2655 59.8403 32.7088 59.8403H35.1208C36.0144 59.8403 36.767 59.1996 36.9102 58.3165C37.2323 56.3301 37.787 54.3836 38.559 52.5314C38.9029 51.7062 38.6022 50.765 37.8441 50.2933L35.7995 49.0213C35.4231 48.7871 35.3074 48.2905 35.5415 47.9141L37.5022 44.7625C37.7364 44.3863 38.2329 44.2705 38.6095 44.5045L40.6598 45.7801C41.4172 46.2513 42.3933 46.1063 42.9812 45.4347C43.9694 44.3055 45.0646 43.254 46.2363 42.3092C46.931 41.7491 47.1156 40.7794 46.6752 40.0035L45.483 37.9029C45.3771 37.7161 45.35 37.4993 45.4072 37.2923C45.4643 37.0853 45.5985 36.913 45.7853 36.807L49.0134 34.975C49.2001 34.869 49.417 34.8421 49.624 34.8992C49.831 34.9564 50.0033 35.0907 50.1093 35.2774L51.2981 37.372C51.7386 38.1484 52.6669 38.4867 53.5054 38.1767C55.0591 37.6021 56.6777 37.1759 58.3162 36.9101C59.1994 36.7669 59.8403 36.0143 59.8403 35.1206V32.7087C59.8403 32.2655 60.201 31.9048 60.6442 31.9048H64.3559C64.7991 31.9048 65.1598 32.2655 65.1598 32.7087V35.1207C65.1598 36.0144 65.8008 36.767 66.6839 36.9102C68.3224 37.176 69.941 37.6022 71.4947 38.1768C72.3331 38.4867 73.2615 38.1485 73.7021 37.3721L74.8908 35.2774C74.9967 35.0907 75.1692 34.9564 75.3762 34.8992C75.5831 34.8421 75.7999 34.869 75.9867 34.975L79.2148 36.807C79.4016 36.9129 79.5358 37.0853 79.5929 37.2923C79.6501 37.4993 79.623 37.7161 79.5171 37.9029L78.3251 40.0035C77.8846 40.7796 78.0691 41.7493 78.7638 42.3093C79.9357 43.2541 81.0308 44.3058 82.0191 45.435C82.6068 46.1063 83.5831 46.2515 84.3404 45.7803L86.3908 44.5047C86.7673 44.2705 87.264 44.3862 87.498 44.7626L89.4587 47.9142C89.6929 48.2905 89.5772 48.7872 89.2008 49.0214L87.1562 50.2935C86.398 50.7651 86.0973 51.7063 86.4412 52.5315C87.2133 54.3838 87.768 56.3302 88.09 58.3167C88.2333 59.1997 88.9858 59.8406 89.8794 59.8406H92.2915C92.7348 59.8406 93.0954 60.2013 93.0954 60.6444V64.3562C93.0954 64.7994 92.7348 65.16 92.2915 65.16H89.8794C88.9858 65.16 88.2333 65.8008 88.09 66.6839C88.0376 67.007 87.974 67.3486 87.8895 67.7587C87.7835 68.2739 88.1152 68.7776 88.6304 68.8836C89.1453 68.9898 89.6492 68.6579 89.7552 68.1428C89.8387 67.7372 89.9035 67.3923 89.9578 67.0649H92.2913C93.785 67.0649 95.0001 65.8497 95.0001 64.3562V60.6444C95 59.1507 93.785 57.9355 92.2913 57.9355Z" fill="#434DAF"/>
<path d="M75.9274 44.7623C72.0364 41.8123 67.3931 40.2531 62.5 40.2531C50.233 40.2531 40.2531 50.233 40.2531 62.5C40.2531 74.767 50.233 84.7469 62.5 84.7469C74.767 84.7469 84.7469 74.767 84.7469 62.5C84.7469 57.0001 82.723 51.7199 79.0479 47.6321C78.6963 47.241 78.0941 47.2089 77.703 47.5606C77.3117 47.9124 77.2797 48.5146 77.6315 48.9057C80.9916 52.6432 82.8421 57.4711 82.8421 62.5C82.8421 73.7166 73.7167 82.8421 62.5 82.8421C51.2833 82.8421 42.1579 73.7166 42.1579 62.5C42.1579 51.2833 51.2833 42.1579 62.5 42.1579C66.9742 42.1579 71.2194 43.5833 74.7766 46.2801C75.1958 46.5979 75.7932 46.5156 76.1109 46.0966C76.4288 45.6774 76.3466 45.08 75.9274 44.7623Z" fill="#434DAF"/>
<path d="M62.5 44.3351C52.4839 44.3351 44.3351 52.4839 44.3351 62.5C44.3351 72.5161 52.4839 80.6649 62.5 80.6649C72.5161 80.6649 80.6649 72.5161 80.6649 62.5C80.6649 52.4839 72.5161 44.3351 62.5 44.3351ZM62.5 78.76C53.5342 78.76 46.24 71.4658 46.24 62.5C46.24 53.5342 53.5342 46.24 62.5 46.24C71.4658 46.24 78.76 53.5342 78.76 62.5C78.76 71.4658 71.4658 78.76 62.5 78.76Z" fill="#434DAF"/>
<path d="M62.5 53.0346C59.5921 53.0346 56.8866 54.3449 55.0775 56.6297C54.751 57.042 54.8206 57.641 55.2329 57.9676C55.6453 58.2941 56.2443 58.2245 56.5709 57.8122C58.0165 55.9866 60.1776 54.9394 62.5 54.9394C66.6689 54.9394 70.0605 58.3311 70.0605 62.5C70.0605 66.6689 66.6689 70.0605 62.5 70.0605C58.3311 70.0605 54.9395 66.6689 54.9395 62.5C54.9395 62.0337 54.9844 61.5594 55.0728 61.09C55.1703 60.573 54.8302 60.075 54.3134 59.9776C53.7955 59.8801 53.2984 60.2201 53.201 60.737C53.0906 61.3224 53.0346 61.9154 53.0346 62.5C53.0346 67.7192 57.2807 71.9653 62.5 71.9653C67.7192 71.9653 71.9654 67.7192 71.9654 62.5C71.9654 57.2807 67.7192 53.0346 62.5 53.0346Z" fill="#434DAF"/>
</g>
<defs>
<clipPath id="clip0">
<rect width="65" height="65" fill="white" transform="translate(30 30)"/>
</clipPath>
</defs>
</svg>
