<svg width="125" height="125" viewBox="0 0 125 125" fill="none" xmlns="http://www.w3.org/2000/svg">
<circle cx="62.5" cy="62.5" r="62" stroke="#C7C7C7"/>
<path d="M87.3473 57.1209C85.1355 56.0151 80.9886 56.0023 80.8131 56.0023C80.2873 56.0023 79.861 56.4286 79.861 56.9545C79.861 57.4803 80.2873 57.9066 80.8131 57.9066C81.8832 57.9067 84.9901 58.0715 86.4957 58.8242C86.6324 58.8927 86.7776 58.9249 86.9207 58.9249C87.27 58.9249 87.6063 58.7319 87.7731 58.3984C88.0083 57.9281 87.8176 57.3561 87.3473 57.1209Z" fill="#434DAF"/>
<path d="M92.0943 70.677L88.1619 69.5535C87.9922 69.505 87.8736 69.3478 87.8736 69.1712V67.8586C88.1935 67.637 88.4987 67.3889 88.784 67.112C90.1665 65.7704 90.9279 63.9708 90.9279 62.0447V60.2335L91.3081 59.4731C91.7254 58.6384 91.9459 57.7039 91.9459 56.7708V51.8641C91.9459 51.3382 91.5196 50.9119 90.9937 50.9119H81.8312C78.4994 50.9119 75.7887 53.6226 75.7887 56.9544V57.0111C75.7887 57.7871 75.9721 58.5641 76.3191 59.2581L76.8067 60.2333V61.7885C76.8067 64.2532 78.0213 66.4646 79.861 67.7953L79.8612 69.171C79.8612 69.3831 79.8612 69.4709 79.075 69.6957L77.1562 70.2438L71.6057 68.2255C71.6256 67.9636 71.5373 67.6973 71.3462 67.4966L69.5726 65.6332V62.505C69.7601 62.3505 69.9449 62.1918 70.124 62.024C72.3616 59.9267 73.6448 56.9657 73.6448 53.9001V51.402C74.3205 49.9317 74.6629 48.3759 74.6629 46.7736V36.5933C74.6629 36.0674 74.2366 35.6411 73.7107 35.6411H59.4578C54.4419 35.6411 50.3612 39.7219 50.3612 44.7377V46.7739C50.3612 48.3762 50.7036 49.932 51.3793 51.4022V53.5517C51.3793 57.1109 52.9619 60.3175 55.4516 62.4315V65.6333L53.6779 67.4967C53.4868 67.6974 53.3985 67.9638 53.4184 68.2257L47.5602 70.3558C47.1356 70.5102 46.7412 70.7193 46.383 70.9725L45.4631 70.5126C48.2015 69.3206 49.069 67.6442 49.1106 67.5609C49.2447 67.2929 49.2447 66.9773 49.1106 66.7093C48.4242 65.3365 48.341 62.8201 48.2743 60.7983C48.2521 60.1252 48.231 59.4893 48.1907 58.923C47.8661 54.356 44.3942 50.9119 40.1146 50.9119C35.835 50.9119 32.363 54.3559 32.0385 58.923C31.9982 59.4894 31.9772 60.1253 31.955 60.7985C31.8882 62.8203 31.8049 65.3363 31.1186 66.7092C30.9845 66.9772 30.9845 67.2928 31.1186 67.5608C31.1602 67.6441 32.0259 69.3171 34.7698 70.5104L32.2146 71.788C30.8486 72.4715 30 73.8445 30 75.3716V82.4059C30 82.9318 30.4263 83.3581 30.9521 83.3581C31.478 83.3581 31.9043 82.9318 31.9043 82.4059V75.3716C31.9043 74.5703 32.3495 73.8498 33.0662 73.4914L36.248 71.9006L37.3548 72.9524C38.1287 73.6878 39.1215 74.0554 40.1146 74.0554C41.1075 74.0554 42.1008 73.6876 42.8744 72.9524L43.9811 71.9007L45.0186 72.4194C44.53 73.2011 44.2528 74.1177 44.2528 75.0778V82.4062C44.2528 82.932 44.6791 83.3583 45.2049 83.3583C45.7308 83.3583 46.1571 82.932 46.1571 82.4062V75.0778C46.1571 73.7707 46.9824 72.5923 48.2109 72.1456L54.3874 69.8997L56.9586 73.7566C57.2873 74.2497 57.814 74.566 58.4037 74.6244C58.4695 74.6308 58.5349 74.634 58.6001 74.634C59.1204 74.634 59.6187 74.4292 59.9912 74.0569L61.5598 72.4882V82.4063C61.5598 82.9322 61.9861 83.3585 62.5119 83.3585C63.0378 83.3585 63.4641 82.9322 63.4641 82.4063V72.4882L65.0327 74.0569C65.4051 74.4294 65.9034 74.6341 66.4237 74.6341C66.4889 74.6341 66.5544 74.631 66.62 74.6245C67.2098 74.5661 67.7366 74.2498 68.0652 73.7568L70.6366 69.8999L76.813 72.1458C78.0413 72.5926 78.8668 73.771 78.8668 75.0781V82.4065C78.8668 82.9323 79.2931 83.3586 79.8189 83.3586C80.3448 83.3586 80.7711 82.9323 80.7711 82.4065V75.0781C80.7711 73.7542 80.2451 72.5126 79.3628 71.5944L79.598 71.5272C79.8353 71.4594 80.1591 71.3666 80.4841 71.2073L82.9151 73.6383V82.4065C82.9151 82.9323 83.3414 83.3586 83.8672 83.3586C84.3931 83.3586 84.8194 82.9323 84.8194 82.4065V73.6383L87.2335 71.2242C87.3619 71.2894 87.4967 71.3445 87.6386 71.385L91.5711 72.5086C92.4687 72.765 93.0957 73.5962 93.0957 74.5298V82.4065C93.0957 82.9323 93.522 83.3586 94.0479 83.3586C94.5737 83.3586 95 82.9323 95 82.4065V74.5298C95 72.7501 93.8051 71.1659 92.0943 70.677ZM36.1083 68.9953C34.3273 68.3544 33.434 67.5 33.0526 67.0334C33.3126 66.3537 33.4812 65.5753 33.5953 64.7535C34.1204 66.0125 34.9998 67.0873 36.1083 67.8541V68.9953ZM41.5629 71.5721C40.7508 72.3438 39.4786 72.3436 38.6667 71.572L37.7812 70.7306C37.9306 70.4506 38.0128 70.1333 38.0128 69.8008V68.7859C38.677 68.9935 39.3831 69.1054 40.1149 69.1054C40.8457 69.1054 41.5515 68.993 42.2168 68.7865L42.2167 69.8006C42.2167 70.1333 42.2987 70.4508 42.4483 70.7308L41.5629 71.5721ZM40.1151 67.2011C37.2719 67.2011 34.9589 64.8881 34.9589 62.045C34.9589 61.5191 34.5326 61.0928 34.0068 61.0928C33.9534 61.0928 33.9014 61.0983 33.8505 61.1068C33.8533 61.0249 33.8559 60.9429 33.8587 60.8617C33.8799 60.207 33.9004 59.5887 33.9381 59.0583C34.0597 57.3474 34.7433 55.7709 35.8631 54.619C36.9928 53.4566 38.5028 52.8165 40.1149 52.8165C41.7269 52.8165 43.2368 53.4566 44.3667 54.619C45.4864 55.7709 46.17 57.3474 46.2916 59.0583C46.3292 59.5885 46.3498 60.2068 46.3714 60.8614C46.3733 60.9176 46.3752 60.9746 46.3771 61.0312C45.3411 59.4352 43.7413 58.259 41.6741 57.5947C39.7643 56.9812 38.1218 57.0191 38.0525 57.0209C37.8032 57.0279 37.5665 57.1322 37.3935 57.3118L35.6756 59.0934C35.3106 59.472 35.3215 60.0748 35.7001 60.4398C36.0786 60.8047 36.6814 60.7937 37.0464 60.4153L38.4759 58.9328C39.707 58.993 43.6675 59.4536 45.2078 62.8454C44.8203 65.3448 42.672 67.2011 40.1151 67.2011ZM44.1209 68.9984L44.121 67.8628C45.2287 67.1002 46.1093 66.0275 46.6348 64.759C46.7489 65.5788 46.9174 66.3555 47.1769 67.0337C46.7977 67.4958 45.9001 68.3578 44.1209 68.9984ZM53.2836 53.5515V51.1892C53.2836 51.0459 53.2512 50.9043 53.1889 50.7752C52.5762 49.5064 52.2655 48.1602 52.2655 46.7739V44.7378C52.2655 40.7719 55.4921 37.5455 59.4578 37.5455H72.7586V46.774C72.7586 48.1603 72.4479 49.5066 71.8352 50.7753C71.7729 50.9044 71.7405 51.046 71.7405 51.1893V53.9004C71.7405 56.4789 70.704 58.8706 68.8218 60.6349C68.5868 60.855 68.3429 61.0614 68.0908 61.2538C68.0852 61.2576 68.0798 61.2618 68.0744 61.2657C66.3111 62.6044 64.1514 63.2551 61.896 63.1089C57.0665 62.7963 53.2836 58.5982 53.2836 53.5515ZM58.6447 72.7102C58.6381 72.7168 58.6227 72.7324 58.5916 72.7291C58.5606 72.726 58.5485 72.7079 58.5433 72.7L55.5821 68.2582L56.535 67.2569L61.0272 70.3275L58.6447 72.7102ZM62.5121 69.0358L57.3559 65.5113V63.7339C58.69 64.4552 60.1839 64.9062 61.7727 65.0091C62.0237 65.0253 62.2731 65.0333 62.5218 65.0333C64.3425 65.0333 66.0947 64.5981 67.6683 63.772V65.5113L62.5121 69.0358ZM66.4809 72.7003C66.4757 72.7081 66.4635 72.7263 66.4325 72.7293C66.4014 72.7333 66.3862 72.7169 66.3794 72.7104L63.9969 70.3279L68.4891 67.2571L69.4422 68.2584L66.4809 72.7003ZM83.8672 71.8969L81.7065 69.7363C81.7442 69.565 81.7655 69.3775 81.7654 69.1707L81.7653 68.7689C82.3649 68.9657 82.9968 69.0825 83.6508 69.102C83.7242 69.1043 83.7969 69.1053 83.87 69.1053C84.5926 69.1053 85.298 68.9961 85.9693 68.7878V69.1712C85.9693 69.3611 85.9932 69.5472 86.0381 69.7261L83.8672 71.8969ZM87.4578 65.7455C86.4487 66.7248 85.1156 67.242 83.708 67.1986C80.9526 67.116 78.711 64.689 78.711 61.7888V60.0087C78.711 59.8608 78.6766 59.7151 78.6105 59.5829L78.0223 58.4066C77.8069 57.9756 77.693 57.4932 77.693 57.0113V56.9545C77.693 54.6727 79.5494 52.8163 81.8312 52.8163H90.0416V56.7709C90.0416 57.41 89.8905 58.05 89.6047 58.6217L89.1241 59.5829C89.058 59.7152 89.0236 59.8608 89.0236 60.0087V62.0448C89.0236 63.4515 88.4675 64.7657 87.4578 65.7455Z" fill="#434DAF"/>
<path d="M89.9756 75.3456C89.4497 75.3456 89.0234 75.7719 89.0234 76.2977V82.4061C89.0234 82.9319 89.4497 83.3582 89.9756 83.3582C90.5014 83.3582 90.9277 82.9319 90.9277 82.4061V76.2977C90.9277 75.772 90.5014 75.3456 89.9756 75.3456Z" fill="#434DAF"/>
<path d="M35.0244 76.6041C34.4986 76.6041 34.0723 77.0304 34.0723 77.5563V82.406C34.0723 82.9318 34.4986 83.3582 35.0244 83.3582C35.5503 83.3582 35.9766 82.9318 35.9766 82.406V77.5563C35.9766 77.0306 35.5503 76.6041 35.0244 76.6041Z" fill="#434DAF"/>
<path d="M70.3117 47.1188C66.7105 43.5177 59.176 44.2061 56.1035 44.6693C55.1357 44.8151 54.4334 45.6341 54.4334 46.6166V48.8101C54.4334 49.3359 54.8597 49.7622 55.3856 49.7622C55.9114 49.7622 56.3377 49.3359 56.3377 48.8101V46.6165C56.3377 46.5841 56.359 46.5564 56.3875 46.5521C57.6147 46.3671 60.0501 46.0817 62.5733 46.2499C65.5424 46.4476 67.693 47.1929 68.9652 48.4653C69.3371 48.8371 69.94 48.8371 70.3117 48.4653C70.6835 48.0934 70.6835 47.4905 70.3117 47.1188Z" fill="#434DAF"/>
<path d="M51.3134 77.3817C50.7876 77.3817 50.3613 77.808 50.3613 78.3339V82.4061C50.3613 82.932 50.7876 83.3583 51.3134 83.3583C51.8393 83.3583 52.2656 82.932 52.2656 82.4061V78.3339C52.2656 77.8081 51.8393 77.3817 51.3134 77.3817Z" fill="#434DAF"/>
<path d="M73.7107 77.3817C73.1849 77.3817 72.7586 77.808 72.7586 78.3339V82.4061C72.7586 82.932 73.1849 83.3583 73.7107 83.3583C74.2366 83.3583 74.6629 82.932 74.6629 82.4061V78.3339C74.6629 77.8081 74.2366 77.3817 73.7107 77.3817Z" fill="#434DAF"/>
</svg>
