<svg width="125" height="125" viewBox="0 0 125 125" fill="none" xmlns="http://www.w3.org/2000/svg">
<circle cx="62.5" cy="62.5" r="62" stroke="#C7C7C7"/>
<g clip-path="url(#clip0)">
<path d="M87.6097 82.5071C38.2398 82.5071 40.964 82.5181 40.806 82.4873C32.5448 82.0855 26 75.2686 26 66.9325C26 58.7022 32.4164 51.9425 40.5102 51.394C40.5896 47.6073 41.9264 43.916 44.2949 40.9628C44.6644 40.5021 45.3373 40.428 45.7979 40.7977C46.2586 41.1671 46.3326 41.8401 45.963 42.3008C43.7922 45.0075 42.6448 48.2757 42.6448 51.7521C42.6448 52.3831 42.748 52.7646 42.3605 53.1681C42.159 53.3781 41.8804 53.4969 41.5893 53.4969C41.584 53.4969 41.5749 53.4969 41.5674 53.4967C34.162 53.5003 28.1385 59.5262 28.1385 66.9325C28.1385 74.1843 33.8112 80.0812 41.0528 80.3575C41.4926 80.3742 37.3499 80.3686 87.6096 80.3686C90.0242 80.3686 92.3085 79.4436 94.0421 77.7639C94.4663 77.3531 95.143 77.3635 95.554 77.7877C95.9649 78.2119 95.9544 78.8888 95.5302 79.2997C93.3956 81.368 90.5828 82.5071 87.6097 82.5071ZM97.0771 75.362C96.5161 75.1777 96.2107 74.5735 96.395 74.0125C98.2672 68.3146 94.2413 62.4119 88.4058 61.9145C87.8231 61.8649 87.3883 61.3562 87.4301 60.7728C87.8923 54.3043 82.7728 48.9541 76.4691 48.9541C75.5914 48.9541 74.7055 49.0611 73.8362 49.2721C73.2556 49.4132 72.67 49.0497 72.5403 48.4646C71.0182 41.6067 64.8074 36.6292 57.7722 36.6292C54.7716 36.6292 51.8718 37.5057 49.3865 39.164C48.8953 39.4918 48.2314 39.3592 47.9036 38.8681C47.5759 38.3769 47.7083 37.7128 48.1996 37.3852C51.0375 35.4917 54.3477 34.4907 57.7723 34.4907C61.7245 34.4907 65.5873 35.8604 68.6495 38.3474C71.3937 40.5763 73.3984 43.6138 74.3691 46.9846C75.0671 46.8721 75.7699 46.8154 76.4692 46.8154C83.6956 46.8154 89.5771 52.6879 89.5979 59.9152C96.3853 61.1113 100.596 68.08 98.4267 74.6797C98.2424 75.2407 97.6385 75.5465 97.0771 75.362Z" fill="#434DAF"/>
</g>
<defs>
<clipPath id="clip0">
<rect width="73" height="73" fill="white" transform="translate(26 23)"/>
</clipPath>
</defs>
</svg>
