<svg width="123" height="49" viewBox="0 0 123 49" fill="none" xmlns="http://www.w3.org/2000/svg">
<path d="M23.0492 33.1955C22.1371 33.1955 21.4096 32.9348 20.8667 32.4136C20.3455 31.8707 20.0848 31.1432 20.0848 30.2311V12.803C20.0848 11.9126 20.3455 11.2068 20.8667 10.6856C21.4096 10.1427 22.1371 9.87122 23.0492 9.87122C23.9831 9.87122 24.7215 10.1427 25.2644 10.6856C25.8073 11.2068 26.0788 11.9126 26.0788 12.803V30.2311C26.0788 31.1432 25.8073 31.8707 25.2644 32.4136C24.7215 32.9348 23.9831 33.1955 23.0492 33.1955ZM49.0292 28.6674C49.5069 29.2104 49.7458 29.8076 49.7458 30.4591C49.7458 31.1975 49.4527 31.849 48.8663 32.4136C48.3016 32.9566 47.661 33.228 46.9443 33.228C46.1842 33.228 45.5218 32.9023 44.9572 32.2508L39.3542 25.5402L33.6534 32.2508C33.0888 32.9023 32.4372 33.228 31.6989 33.228C30.9822 33.228 30.3307 32.9457 29.7443 32.3811C29.1797 31.8164 28.8974 31.1649 28.8974 30.4265C28.8974 29.7967 29.1254 29.2104 29.5814 28.6674L35.836 21.4356L29.7443 14.3667C29.2665 13.802 29.0277 13.2157 29.0277 12.6076C29.0277 11.8692 29.31 11.2285 29.8746 10.6856C30.461 10.121 31.1234 9.83864 31.8617 9.83864C32.6218 9.83864 33.2842 10.1644 33.8489 10.8159L39.3542 17.3311L44.8269 10.8159C45.3481 10.1644 45.9888 9.83864 46.7489 9.83864C47.4872 9.83864 48.1388 10.121 48.7034 10.6856C49.2898 11.2285 49.583 11.8692 49.583 12.6076C49.583 13.2374 49.3549 13.8237 48.8989 14.3667L42.8072 21.4356L49.0292 28.6674ZM55.3341 33C54.4437 33 53.7596 32.7611 53.2818 32.2833C52.804 31.8056 52.5652 31.1215 52.5652 30.2311V12.803C52.5652 11.9126 52.804 11.2285 53.2818 10.7508C53.7596 10.273 54.4437 10.0341 55.3341 10.0341H66.6053C67.5391 10.0341 68.245 10.2296 68.7227 10.6205C69.2005 11.0114 69.4394 11.576 69.4394 12.3144C69.4394 13.878 68.4947 14.6599 66.6053 14.6599H58.3962V19.025H65.9538C67.8432 19.025 68.7879 19.796 68.7879 21.3379C68.7879 22.0763 68.549 22.6409 68.0712 23.0318C67.5934 23.4227 66.8876 23.6182 65.9538 23.6182H58.3962V28.3742H66.6053C68.4947 28.3742 69.4394 29.1561 69.4394 30.7197C69.4394 31.4581 69.2005 32.0227 68.7227 32.4136C68.245 32.8045 67.5391 33 66.6053 33H55.3341ZM74.7714 33C73.881 33 73.1969 32.7611 72.7191 32.2833C72.2413 31.8056 72.0025 31.1106 72.0025 30.1985V12.803C72.0025 11.9126 72.2631 11.2068 72.7843 10.6856C73.3272 10.1427 74.0547 9.87122 74.9668 9.87122C75.9007 9.87122 76.6391 10.1427 77.182 10.6856C77.7249 11.2068 77.9964 11.9126 77.9964 12.803V28.1462H85.4888C87.3782 28.1462 88.3229 28.9606 88.3229 30.5894C88.3229 31.4146 88.084 32.0227 87.6062 32.4136C87.1502 32.8045 86.4444 33 85.4888 33H74.7714Z" fill="white"/>
<path d="M21.5091 45.0727C20.903 45.0727 20.3788 44.9424 19.9364 44.6818C19.4939 44.4152 19.1515 44.0364 18.9091 43.5455C18.6727 43.0485 18.5545 42.4636 18.5545 41.7909C18.5545 41.1242 18.6727 40.5455 18.9091 40.0545C19.1515 39.5576 19.4939 39.1788 19.9364 38.9182C20.3788 38.6515 20.903 38.5182 21.5091 38.5182C21.9152 38.5182 22.297 38.5849 22.6545 38.7182C23.0182 38.8455 23.3333 39.0303 23.6 39.2727C23.697 39.3636 23.7455 39.4697 23.7455 39.5909C23.7455 39.6758 23.7212 39.7515 23.6727 39.8182C23.6242 39.8788 23.5667 39.9091 23.5 39.9091C23.4273 39.9091 23.3394 39.8758 23.2364 39.8091C22.9273 39.5667 22.6455 39.397 22.3909 39.3C22.1424 39.203 21.8545 39.1545 21.5273 39.1545C20.8242 39.1545 20.2818 39.3849 19.9 39.8455C19.5242 40.3 19.3364 40.9485 19.3364 41.7909C19.3364 42.6394 19.5242 43.2939 19.9 43.7545C20.2818 44.2091 20.8242 44.4364 21.5273 44.4364C21.8485 44.4364 22.1364 44.3879 22.3909 44.2909C22.6455 44.1939 22.9273 44.0242 23.2364 43.7818C23.3394 43.7152 23.4273 43.6818 23.5 43.6818C23.5667 43.6818 23.6242 43.7121 23.6727 43.7727C23.7212 43.8333 23.7455 43.9091 23.7455 44C23.7455 44.1212 23.697 44.2273 23.6 44.3182C23.3333 44.5606 23.0182 44.7485 22.6545 44.8818C22.297 45.0091 21.9152 45.0727 21.5091 45.0727ZM27.0705 40.4636C27.5917 40.4636 27.9857 40.6121 28.2523 40.9091C28.519 41.2 28.6523 41.6364 28.6523 42.2182V44.6818C28.6523 44.797 28.619 44.8879 28.5523 44.9545C28.4857 45.0152 28.3978 45.0455 28.2887 45.0455C28.1736 45.0455 28.0826 45.0152 28.016 44.9545C27.9493 44.8879 27.916 44.797 27.916 44.6818V42.2364C27.916 41.8424 27.8342 41.5515 27.6705 41.3636C27.5129 41.1758 27.2584 41.0818 26.9069 41.0818C26.5008 41.0818 26.1766 41.2061 25.9342 41.4545C25.6917 41.703 25.5705 42.0394 25.5705 42.4636V44.6818C25.5705 44.797 25.5372 44.8879 25.4705 44.9545C25.4099 45.0152 25.322 45.0455 25.2069 45.0455C25.0917 45.0455 25.0008 45.0152 24.9342 44.9545C24.8675 44.8879 24.8342 44.797 24.8342 44.6818V38.9C24.8342 38.797 24.8675 38.7121 24.9342 38.6455C25.0069 38.5788 25.0978 38.5455 25.2069 38.5455C25.322 38.5455 25.4099 38.5788 25.4705 38.6455C25.5372 38.7061 25.5705 38.7909 25.5705 38.9V41.2818C25.716 41.0152 25.919 40.8121 26.1796 40.6727C26.4402 40.5333 26.7372 40.4636 27.0705 40.4636ZM31.8102 40.4636C32.9192 40.4636 33.4738 41.0455 33.4738 42.2091V44.6818C33.4738 44.7909 33.4405 44.8788 33.3738 44.9455C33.3132 45.0121 33.2283 45.0455 33.1192 45.0455C33.0102 45.0455 32.9223 45.0121 32.8556 44.9455C32.7889 44.8788 32.7556 44.7909 32.7556 44.6818V44.2455C32.6405 44.5061 32.4647 44.7091 32.2283 44.8545C31.992 44.9939 31.7192 45.0636 31.4102 45.0636C31.1253 45.0636 30.8617 45.0061 30.6192 44.8909C30.3829 44.7758 30.195 44.6152 30.0556 44.4091C29.9162 44.203 29.8465 43.9758 29.8465 43.7273C29.8465 43.3939 29.9314 43.1364 30.1011 42.9545C30.2708 42.7667 30.5495 42.6333 30.9374 42.5545C31.3253 42.4697 31.8647 42.4273 32.5556 42.4273H32.7556V42.1273C32.7556 41.7636 32.6798 41.497 32.5283 41.3273C32.3829 41.1576 32.1435 41.0727 31.8102 41.0727C31.398 41.0727 30.9798 41.1848 30.5556 41.4091C30.392 41.5121 30.2768 41.5636 30.2102 41.5636C30.1374 41.5636 30.0768 41.5364 30.0283 41.4818C29.9798 41.4273 29.9556 41.3576 29.9556 41.2727C29.9556 41.1879 29.9798 41.1152 30.0283 41.0545C30.0829 40.9879 30.1677 40.9212 30.2829 40.8545C30.495 40.7333 30.7344 40.6394 31.0011 40.5727C31.2738 40.5 31.5435 40.4636 31.8102 40.4636ZM31.5102 44.4818C31.8738 44.4818 32.1708 44.3606 32.4011 44.1182C32.6374 43.8697 32.7556 43.5515 32.7556 43.1636V42.9H32.592C32.0586 42.9 31.6526 42.9242 31.3738 42.9727C31.095 43.0152 30.895 43.0909 30.7738 43.2C30.6586 43.303 30.6011 43.4576 30.6011 43.6636C30.6011 43.9 30.6859 44.097 30.8556 44.2545C31.0314 44.4061 31.2495 44.4818 31.5102 44.4818ZM37.049 40.4636C38.1096 40.4636 38.6399 41.0485 38.6399 42.2182V44.6818C38.6399 44.797 38.6066 44.8879 38.5399 44.9545C38.4793 45.0152 38.3914 45.0455 38.2763 45.0455C38.1611 45.0455 38.0702 45.0152 38.0035 44.9545C37.9369 44.8879 37.9035 44.797 37.9035 44.6818V42.2636C37.9035 41.8515 37.8217 41.5515 37.6581 41.3636C37.5005 41.1758 37.246 41.0818 36.8945 41.0818C36.4884 41.0818 36.1642 41.2061 35.9217 41.4545C35.6793 41.703 35.5581 42.0394 35.5581 42.4636V44.6818C35.5581 44.797 35.5248 44.8879 35.4581 44.9545C35.3975 45.0152 35.3096 45.0455 35.1945 45.0455C35.0793 45.0455 34.9884 45.0152 34.9217 44.9545C34.8551 44.8879 34.8217 44.797 34.8217 44.6818V40.8455C34.8217 40.7364 34.8551 40.6485 34.9217 40.5818C34.9884 40.5152 35.0793 40.4818 35.1945 40.4818C35.3035 40.4818 35.3884 40.5152 35.449 40.5818C35.5157 40.6485 35.549 40.7333 35.549 40.8364V41.3C35.6945 41.0273 35.8975 40.8212 36.1581 40.6818C36.4187 40.5364 36.7157 40.4636 37.049 40.4636ZM43.5795 40.4818C43.6947 40.4818 43.7856 40.5152 43.8523 40.5818C43.9189 40.6485 43.9523 40.7364 43.9523 40.8455V44.7C43.9523 45.3606 43.7826 45.8576 43.4432 46.1909C43.1038 46.5303 42.6007 46.7 41.9341 46.7C41.2856 46.7 40.7462 46.5727 40.3159 46.3182C40.0977 46.197 39.9886 46.0576 39.9886 45.9C39.9886 45.8152 40.0098 45.7455 40.0523 45.6909C40.1007 45.6364 40.1614 45.6091 40.2341 45.6091C40.2947 45.6091 40.4038 45.6515 40.5614 45.7364C40.7735 45.8455 40.9826 45.9333 41.1886 46C41.3947 46.0667 41.6401 46.1 41.925 46.1C42.3553 46.1 42.6795 45.9848 42.8977 45.7545C43.1159 45.5303 43.225 45.2 43.225 44.7636V43.9818C43.0977 44.2667 42.9007 44.4848 42.6341 44.6364C42.3735 44.7879 42.0644 44.8636 41.7068 44.8636C41.3189 44.8636 40.9735 44.7727 40.6704 44.5909C40.3735 44.4091 40.1401 44.1515 39.9704 43.8182C39.8068 43.4848 39.725 43.1 39.725 42.6636C39.725 42.2273 39.8068 41.8424 39.9704 41.5091C40.1401 41.1758 40.3735 40.9182 40.6704 40.7364C40.9735 40.5545 41.3189 40.4636 41.7068 40.4636C42.0583 40.4636 42.3644 40.5394 42.625 40.6909C42.8856 40.8424 43.0826 41.0576 43.2159 41.3364V40.8455C43.2159 40.7364 43.2462 40.6485 43.3068 40.5818C43.3735 40.5152 43.4644 40.4818 43.5795 40.4818ZM41.8523 44.2545C42.2765 44.2545 42.6098 44.1152 42.8523 43.8364C43.0947 43.5515 43.2159 43.1606 43.2159 42.6636C43.2159 42.1727 43.0947 41.7879 42.8523 41.5091C42.6159 41.2242 42.2826 41.0818 41.8523 41.0818C41.422 41.0818 41.0826 41.2242 40.8341 41.5091C40.5917 41.7879 40.4704 42.1727 40.4704 42.6636C40.4704 43.1606 40.5917 43.5515 40.8341 43.8364C41.0826 44.1152 41.422 44.2545 41.8523 44.2545ZM45.6881 45.0455C45.579 45.0455 45.4881 45.0152 45.4153 44.9545C45.3487 44.8879 45.3153 44.797 45.3153 44.6818V40.8455C45.3153 40.7303 45.3487 40.6424 45.4153 40.5818C45.4881 40.5152 45.579 40.4818 45.6881 40.4818C45.7972 40.4818 45.885 40.5152 45.9517 40.5818C46.0184 40.6424 46.0517 40.7303 46.0517 40.8455V44.6818C46.0517 44.803 46.0184 44.8939 45.9517 44.9545C45.885 45.0152 45.7972 45.0455 45.6881 45.0455ZM45.6881 39.5273C45.5426 39.5273 45.4244 39.4848 45.3335 39.4C45.2426 39.3152 45.1972 39.203 45.1972 39.0636C45.1972 38.9303 45.2426 38.8212 45.3335 38.7364C45.4244 38.6515 45.5426 38.6091 45.6881 38.6091C45.8335 38.6091 45.9517 38.6515 46.0426 38.7364C46.1335 38.8212 46.179 38.9303 46.179 39.0636C46.179 39.203 46.1335 39.3152 46.0426 39.4C45.9517 39.4848 45.8335 39.5273 45.6881 39.5273ZM49.6555 40.4636C50.7161 40.4636 51.2464 41.0485 51.2464 42.2182V44.6818C51.2464 44.797 51.2131 44.8879 51.1464 44.9545C51.0858 45.0152 50.998 45.0455 50.8828 45.0455C50.7676 45.0455 50.6767 45.0152 50.6101 44.9545C50.5434 44.8879 50.5101 44.797 50.5101 44.6818V42.2636C50.5101 41.8515 50.4283 41.5515 50.2646 41.3636C50.107 41.1758 49.8525 41.0818 49.501 41.0818C49.0949 41.0818 48.7707 41.2061 48.5283 41.4545C48.2858 41.703 48.1646 42.0394 48.1646 42.4636V44.6818C48.1646 44.797 48.1313 44.8879 48.0646 44.9545C48.004 45.0152 47.9161 45.0455 47.801 45.0455C47.6858 45.0455 47.5949 45.0152 47.5283 44.9545C47.4616 44.8879 47.4283 44.797 47.4283 44.6818V40.8455C47.4283 40.7364 47.4616 40.6485 47.5283 40.5818C47.5949 40.5152 47.6858 40.4818 47.801 40.4818C47.9101 40.4818 47.9949 40.5152 48.0555 40.5818C48.1222 40.6485 48.1555 40.7333 48.1555 40.8364V41.3C48.301 41.0273 48.504 40.8212 48.7646 40.6818C49.0252 40.5364 49.3222 40.4636 49.6555 40.4636ZM56.1861 40.4818C56.3012 40.4818 56.3921 40.5152 56.4588 40.5818C56.5255 40.6485 56.5588 40.7364 56.5588 40.8455V44.7C56.5588 45.3606 56.3891 45.8576 56.0497 46.1909C55.7103 46.5303 55.2073 46.7 54.5406 46.7C53.8921 46.7 53.3527 46.5727 52.9224 46.3182C52.7043 46.197 52.5952 46.0576 52.5952 45.9C52.5952 45.8152 52.6164 45.7455 52.6588 45.6909C52.7073 45.6364 52.7679 45.6091 52.8406 45.6091C52.9012 45.6091 53.0103 45.6515 53.1679 45.7364C53.38 45.8455 53.5891 45.9333 53.7952 46C54.0012 46.0667 54.2467 46.1 54.5315 46.1C54.9618 46.1 55.2861 45.9848 55.5042 45.7545C55.7224 45.5303 55.8315 45.2 55.8315 44.7636V43.9818C55.7042 44.2667 55.5073 44.4848 55.2406 44.6364C54.98 44.7879 54.6709 44.8636 54.3133 44.8636C53.9255 44.8636 53.58 44.7727 53.277 44.5909C52.98 44.4091 52.7467 44.1515 52.577 43.8182C52.4133 43.4848 52.3315 43.1 52.3315 42.6636C52.3315 42.2273 52.4133 41.8424 52.577 41.5091C52.7467 41.1758 52.98 40.9182 53.277 40.7364C53.58 40.5545 53.9255 40.4636 54.3133 40.4636C54.6649 40.4636 54.9709 40.5394 55.2315 40.6909C55.4921 40.8424 55.6891 41.0576 55.8224 41.3364V40.8455C55.8224 40.7364 55.8527 40.6485 55.9133 40.5818C55.98 40.5152 56.0709 40.4818 56.1861 40.4818ZM54.4588 44.2545C54.883 44.2545 55.2164 44.1152 55.4588 43.8364C55.7012 43.5515 55.8224 43.1606 55.8224 42.6636C55.8224 42.1727 55.7012 41.7879 55.4588 41.5091C55.2224 41.2242 54.8891 41.0818 54.4588 41.0818C54.0285 41.0818 53.6891 41.2242 53.4406 41.5091C53.1982 41.7879 53.077 42.1727 53.077 42.6636C53.077 43.1606 53.1982 43.5515 53.4406 43.8364C53.6891 44.1152 54.0285 44.2545 54.4588 44.2545ZM62.3111 44.4636C62.5232 44.4818 62.6292 44.5788 62.6292 44.7545C62.6292 44.8576 62.5899 44.9364 62.5111 44.9909C62.4383 45.0394 62.3262 45.0576 62.1747 45.0455L61.9292 45.0273C61.4444 44.9909 61.0868 44.8455 60.8565 44.5909C60.6262 44.3364 60.5111 43.9515 60.5111 43.4364V41.1545H59.902C59.7989 41.1545 59.7171 41.1303 59.6565 41.0818C59.602 41.0273 59.5747 40.9576 59.5747 40.8727C59.5747 40.7818 59.602 40.7091 59.6565 40.6545C59.7171 40.6 59.7989 40.5727 59.902 40.5727H60.5111V39.5455C60.5111 39.4303 60.5444 39.3424 60.6111 39.2818C60.6777 39.2152 60.7686 39.1818 60.8838 39.1818C60.9929 39.1818 61.0808 39.2152 61.1474 39.2818C61.2141 39.3424 61.2474 39.4303 61.2474 39.5455V40.5727H62.2565C62.3535 40.5727 62.4292 40.6 62.4838 40.6545C62.5444 40.7091 62.5747 40.7818 62.5747 40.8727C62.5747 40.9576 62.5444 41.0273 62.4838 41.0818C62.4292 41.1303 62.3535 41.1545 62.2565 41.1545H61.2474V43.4727C61.2474 43.8061 61.3141 44.0485 61.4474 44.2C61.5868 44.3455 61.7929 44.4273 62.0656 44.4455L62.3111 44.4636ZM65.5915 40.4636C66.1127 40.4636 66.5066 40.6121 66.7733 40.9091C67.0399 41.2 67.1733 41.6364 67.1733 42.2182V44.6818C67.1733 44.797 67.1399 44.8879 67.0733 44.9545C67.0066 45.0152 66.9187 45.0455 66.8096 45.0455C66.6945 45.0455 66.6036 45.0152 66.5369 44.9545C66.4702 44.8879 66.4369 44.797 66.4369 44.6818V42.2364C66.4369 41.8424 66.3551 41.5515 66.1915 41.3636C66.0339 41.1758 65.7793 41.0818 65.4278 41.0818C65.0218 41.0818 64.6975 41.2061 64.4551 41.4545C64.2127 41.703 64.0915 42.0394 64.0915 42.4636V44.6818C64.0915 44.797 64.0581 44.8879 63.9915 44.9545C63.9309 45.0152 63.843 45.0455 63.7278 45.0455C63.6127 45.0455 63.5218 45.0152 63.4551 44.9545C63.3884 44.8879 63.3551 44.797 63.3551 44.6818V38.9C63.3551 38.797 63.3884 38.7121 63.4551 38.6455C63.5278 38.5788 63.6187 38.5455 63.7278 38.5455C63.843 38.5455 63.9309 38.5788 63.9915 38.6455C64.0581 38.7061 64.0915 38.7909 64.0915 38.9V41.2818C64.2369 41.0152 64.4399 40.8121 64.7006 40.6727C64.9612 40.5333 65.2581 40.4636 65.5915 40.4636ZM71.9493 43.9727C72.0159 43.9727 72.0735 44 72.122 44.0545C72.1705 44.1091 72.1947 44.1788 72.1947 44.2636C72.1947 44.4152 72.0887 44.5545 71.8765 44.6818C71.6584 44.8091 71.4281 44.9061 71.1856 44.9727C70.9432 45.0333 70.7068 45.0636 70.4765 45.0636C69.7917 45.0636 69.2493 44.8606 68.8493 44.4545C68.4553 44.0485 68.2584 43.4879 68.2584 42.7727C68.2584 42.3182 68.3462 41.9182 68.522 41.5727C68.6978 41.2212 68.9432 40.9485 69.2584 40.7545C69.5796 40.5606 69.9432 40.4636 70.3493 40.4636C70.925 40.4636 71.3826 40.6515 71.722 41.0273C72.0614 41.403 72.2311 41.9121 72.2311 42.5545C72.2311 42.6758 72.2068 42.7636 72.1584 42.8182C72.1099 42.8727 72.0311 42.9 71.922 42.9H68.9947C69.0493 43.9424 69.5432 44.4636 70.4765 44.4636C70.7129 44.4636 70.9159 44.4333 71.0856 44.3727C71.2553 44.3061 71.4372 44.2182 71.6311 44.1091C71.7887 44.0182 71.8947 43.9727 71.9493 43.9727ZM70.3584 41.0364C69.9705 41.0364 69.6584 41.1576 69.422 41.4C69.1917 41.6424 69.0553 41.9848 69.0129 42.4273H71.5856C71.5735 41.9788 71.4614 41.6364 71.2493 41.4C71.0372 41.1576 70.7402 41.0364 70.3584 41.0364ZM81.7143 40.7182C81.7749 40.5727 81.8749 40.5 82.0143 40.5C82.1052 40.5 82.1871 40.5303 82.2598 40.5909C82.3325 40.6515 82.3689 40.7273 82.3689 40.8182C82.3689 40.8606 82.3598 40.9061 82.3416 40.9545L80.8325 44.7727C80.7961 44.8515 80.7416 44.9152 80.6689 44.9636C80.6022 45.0061 80.5264 45.0273 80.4416 45.0273C80.3628 45.0273 80.2871 45.0061 80.2143 44.9636C80.1477 44.9152 80.0961 44.8515 80.0598 44.7727L78.8052 41.5818L77.5598 44.7727C77.5295 44.8515 77.478 44.9152 77.4052 44.9636C77.3325 45.0061 77.2537 45.0273 77.1689 45.0273C77.0901 45.0273 77.0143 45.0061 76.9416 44.9636C76.8689 44.9152 76.8143 44.8515 76.778 44.7727L75.2689 40.9636C75.2507 40.9152 75.2416 40.8727 75.2416 40.8364C75.2416 40.7394 75.281 40.6576 75.3598 40.5909C75.4446 40.5242 75.5355 40.4909 75.6325 40.4909C75.778 40.4909 75.881 40.5636 75.9416 40.7091L77.1871 44.0636L78.4689 40.7364C78.5052 40.6576 78.5537 40.597 78.6143 40.5545C78.681 40.5121 78.7507 40.4909 78.8234 40.4909C78.9022 40.4909 78.9719 40.5121 79.0325 40.5545C79.0992 40.597 79.1477 40.6576 79.178 40.7364L80.4598 44.0545L81.7143 40.7182ZM85.0417 40.4636C86.1508 40.4636 86.7053 41.0455 86.7053 42.2091V44.6818C86.7053 44.7909 86.672 44.8788 86.6053 44.9455C86.5447 45.0121 86.4598 45.0455 86.3508 45.0455C86.2417 45.0455 86.1538 45.0121 86.0871 44.9455C86.0205 44.8788 85.9871 44.7909 85.9871 44.6818V44.2455C85.872 44.5061 85.6962 44.7091 85.4598 44.8545C85.2235 44.9939 84.9508 45.0636 84.6417 45.0636C84.3568 45.0636 84.0932 45.0061 83.8508 44.8909C83.6144 44.7758 83.4265 44.6152 83.2871 44.4091C83.1477 44.203 83.078 43.9758 83.078 43.7273C83.078 43.3939 83.1629 43.1364 83.3326 42.9545C83.5023 42.7667 83.7811 42.6333 84.1689 42.5545C84.5568 42.4697 85.0962 42.4273 85.7871 42.4273H85.9871V42.1273C85.9871 41.7636 85.9114 41.497 85.7598 41.3273C85.6144 41.1576 85.375 41.0727 85.0417 41.0727C84.6295 41.0727 84.2114 41.1848 83.7871 41.4091C83.6235 41.5121 83.5083 41.5636 83.4417 41.5636C83.3689 41.5636 83.3083 41.5364 83.2598 41.4818C83.2114 41.4273 83.1871 41.3576 83.1871 41.2727C83.1871 41.1879 83.2114 41.1152 83.2598 41.0545C83.3144 40.9879 83.3992 40.9212 83.5144 40.8545C83.7265 40.7333 83.9659 40.6394 84.2326 40.5727C84.5053 40.5 84.775 40.4636 85.0417 40.4636ZM84.7417 44.4818C85.1053 44.4818 85.4023 44.3606 85.6326 44.1182C85.8689 43.8697 85.9871 43.5515 85.9871 43.1636V42.9H85.8235C85.2902 42.9 84.8841 42.9242 84.6053 42.9727C84.3265 43.0152 84.1265 43.0909 84.0053 43.2C83.8902 43.303 83.8326 43.4576 83.8326 43.6636C83.8326 43.9 83.9174 44.097 84.0871 44.2545C84.2629 44.4061 84.4811 44.4818 84.7417 44.4818ZM91.2441 40.7091C91.3108 40.5636 91.4169 40.4909 91.5623 40.4909C91.6532 40.4909 91.7351 40.5212 91.8078 40.5818C91.8805 40.6424 91.9169 40.7182 91.9169 40.8091C91.9169 40.8636 91.9048 40.9121 91.8805 40.9545L89.326 46.4636C89.2957 46.5303 89.2502 46.5818 89.1896 46.6182C89.1351 46.6545 89.0775 46.6727 89.0169 46.6727C88.926 46.6727 88.8441 46.6424 88.7714 46.5818C88.7048 46.5273 88.6714 46.4545 88.6714 46.3636C88.6714 46.3152 88.6835 46.2667 88.7078 46.2182L89.3441 44.8455L87.5441 40.9545C87.5199 40.9121 87.5078 40.8667 87.5078 40.8182C87.5078 40.7273 87.5472 40.6485 87.626 40.5818C87.7108 40.5152 87.8017 40.4818 87.8987 40.4818C87.9593 40.4818 88.0169 40.5 88.0714 40.5364C88.132 40.5727 88.1775 40.6242 88.2078 40.6909L89.726 44.1L91.2441 40.7091ZM98.2576 40.7091C98.3243 40.5636 98.4304 40.4909 98.5758 40.4909C98.6667 40.4909 98.7486 40.5212 98.8213 40.5818C98.894 40.6424 98.9304 40.7182 98.9304 40.8091C98.9304 40.8636 98.9183 40.9121 98.894 40.9545L96.3395 46.4636C96.3092 46.5303 96.2637 46.5818 96.2031 46.6182C96.1486 46.6545 96.091 46.6727 96.0304 46.6727C95.9395 46.6727 95.8576 46.6424 95.7849 46.5818C95.7183 46.5273 95.6849 46.4545 95.6849 46.3636C95.6849 46.3152 95.697 46.2667 95.7213 46.2182L96.3576 44.8455L94.5576 40.9545C94.5334 40.9121 94.5213 40.8667 94.5213 40.8182C94.5213 40.7273 94.5607 40.6485 94.6395 40.5818C94.7243 40.5152 94.8152 40.4818 94.9122 40.4818C94.9728 40.4818 95.0304 40.5 95.0849 40.5364C95.1455 40.5727 95.191 40.6242 95.2213 40.6909L96.7395 44.1L98.2576 40.7091ZM101.52 45.0636C101.101 45.0636 100.732 44.9697 100.41 44.7818C100.095 44.5939 99.8499 44.3273 99.6741 43.9818C99.5044 43.6303 99.4196 43.2242 99.4196 42.7636C99.4196 42.303 99.5044 41.9 99.6741 41.5545C99.8499 41.203 100.095 40.9333 100.41 40.7455C100.732 40.5576 101.101 40.4636 101.52 40.4636C101.938 40.4636 102.307 40.5576 102.629 40.7455C102.95 40.9333 103.195 41.203 103.365 41.5545C103.541 41.9 103.629 42.303 103.629 42.7636C103.629 43.2242 103.541 43.6303 103.365 43.9818C103.195 44.3273 102.95 44.5939 102.629 44.7818C102.307 44.9697 101.938 45.0636 101.52 45.0636ZM101.52 44.4545C101.956 44.4545 102.289 44.3121 102.52 44.0273C102.756 43.7364 102.874 43.3152 102.874 42.7636C102.874 42.2242 102.756 41.8091 102.52 41.5182C102.283 41.2212 101.95 41.0727 101.52 41.0727C101.089 41.0727 100.756 41.2212 100.52 41.5182C100.283 41.8091 100.165 42.2242 100.165 42.7636C100.165 43.3091 100.28 43.7273 100.51 44.0182C100.747 44.3091 101.083 44.4545 101.52 44.4545ZM108.089 40.4818C108.205 40.4818 108.292 40.5152 108.353 40.5818C108.42 40.6485 108.453 40.7364 108.453 40.8455V44.6909C108.453 44.7939 108.42 44.8788 108.353 44.9455C108.292 45.0121 108.205 45.0455 108.089 45.0455C107.98 45.0455 107.892 45.0152 107.826 44.9545C107.765 44.8879 107.735 44.803 107.735 44.7V44.2455C107.596 44.5121 107.399 44.7152 107.144 44.8545C106.896 44.9939 106.614 45.0636 106.299 45.0636C105.771 45.0636 105.374 44.9182 105.108 44.6273C104.841 44.3303 104.708 43.8939 104.708 43.3182V40.8455C104.708 40.7364 104.741 40.6485 104.808 40.5818C104.874 40.5152 104.965 40.4818 105.08 40.4818C105.196 40.4818 105.283 40.5152 105.344 40.5818C105.411 40.6485 105.444 40.7364 105.444 40.8455V43.3C105.444 43.6939 105.523 43.9848 105.68 44.1727C105.838 44.3545 106.086 44.4455 106.426 44.4455C106.814 44.4455 107.126 44.3212 107.362 44.0727C107.599 43.8182 107.717 43.4848 107.717 43.0727V40.8455C107.717 40.7364 107.75 40.6485 107.817 40.5818C107.883 40.5152 107.974 40.4818 108.089 40.4818ZM115.72 38.5455C115.835 38.5455 115.926 38.5788 115.993 38.6455C116.059 38.7121 116.093 38.797 116.093 38.9V44.6818C116.093 44.7909 116.059 44.8788 115.993 44.9455C115.926 45.0121 115.835 45.0455 115.72 45.0455C115.605 45.0455 115.514 45.0121 115.447 44.9455C115.387 44.8788 115.356 44.7909 115.356 44.6818V44.1909C115.223 44.4697 115.026 44.6848 114.765 44.8364C114.511 44.9879 114.211 45.0636 113.865 45.0636C113.478 45.0636 113.135 44.9667 112.838 44.7727C112.541 44.5788 112.311 44.3091 112.147 43.9636C111.984 43.6121 111.902 43.2061 111.902 42.7455C111.902 42.2909 111.984 41.8909 112.147 41.5455C112.311 41.2 112.541 40.9333 112.838 40.7455C113.135 40.5576 113.478 40.4636 113.865 40.4636C114.211 40.4636 114.511 40.5394 114.765 40.6909C115.026 40.8424 115.223 41.0576 115.356 41.3364V38.9C115.356 38.7909 115.387 38.7061 115.447 38.6455C115.514 38.5788 115.605 38.5455 115.72 38.5455ZM114.011 44.4545C114.441 44.4545 114.772 44.3091 115.002 44.0182C115.238 43.7212 115.356 43.303 115.356 42.7636C115.356 42.2242 115.238 41.8091 115.002 41.5182C114.772 41.2273 114.441 41.0818 114.011 41.0818C113.581 41.0818 113.244 41.2273 113.002 41.5182C112.765 41.8091 112.647 42.2182 112.647 42.7455C112.647 43.2848 112.765 43.7061 113.002 44.0091C113.244 44.3061 113.581 44.4545 114.011 44.4545ZM119.293 45.0636C118.875 45.0636 118.505 44.9697 118.184 44.7818C117.869 44.5939 117.623 44.3273 117.448 43.9818C117.278 43.6303 117.193 43.2242 117.193 42.7636C117.193 42.303 117.278 41.9 117.448 41.5545C117.623 41.203 117.869 40.9333 118.184 40.7455C118.505 40.5576 118.875 40.4636 119.293 40.4636C119.711 40.4636 120.081 40.5576 120.402 40.7455C120.723 40.9333 120.969 41.203 121.138 41.5545C121.314 41.9 121.402 42.303 121.402 42.7636C121.402 43.2242 121.314 43.6303 121.138 43.9818C120.969 44.3273 120.723 44.5939 120.402 44.7818C120.081 44.9697 119.711 45.0636 119.293 45.0636ZM119.293 44.4545C119.729 44.4545 120.063 44.3121 120.293 44.0273C120.529 43.7364 120.648 43.3152 120.648 42.7636C120.648 42.2242 120.529 41.8091 120.293 41.5182C120.057 41.2212 119.723 41.0727 119.293 41.0727C118.863 41.0727 118.529 41.2212 118.293 41.5182C118.057 41.8091 117.938 42.2242 117.938 42.7636C117.938 43.3091 118.054 43.7273 118.284 44.0182C118.52 44.3091 118.857 44.4545 119.293 44.4545Z" fill="white"/>
<rect y="10" width="11" height="24" rx="5.5" fill="#00D0DD"/>
</svg>
